<?xml version="1.0" encoding="UTF-8"?>
<svg id="Lager_2" data-name="Lager 2" xmlns="http://www.w3.org/2000/svg" viewBox="0 0 1079.94 1061.38">
  <defs>
    <style>
      .cls-1 {
        fill: #efae00;
      }

      .cls-2 {
        fill: #fff;
      }
    </style>
  </defs>
  <g id="Lager_1-2" data-name="Lager 1">
    <g>
      <path class="cls-1" d="m712.66,363.6h-63.43l-77.43,91.84,32.77,34.23,108.17-125.99-.08-.08Zm-300.79,0h-65.71l156.85,163.68c-4.21,4.77-152,171.27-152,171.27h63.29s116.12-130.87,121.3-136.72l130.02,136.72h66.23l-320.02-335.09.06.13Z"/>
      <g>
        <g>
          <path class="cls-2" d="m0,619.75l137.87-35.94,6.72,24.56-55.74,14.53,69.35,35.18,8.3,30.33-68.31-35.25-69.2,72.53-8.25-30.13,53.31-55.02-17.9-9.11-49.44,12.88-6.72-24.56Z"/>
          <path class="cls-2" d="m90.43,835.49c-8.17-11.4-12.74-23.11-13.72-35.11-.98-12.01,1.35-23.51,6.98-34.5,5.63-11,14.41-20.55,26.35-28.64,11.94-8.1,24.18-12.81,36.74-14.15,12.55-1.33,24.45.52,35.69,5.57,11.24,5.04,20.95,13.27,29.11,24.67,8.09,11.29,12.64,22.97,13.66,35.02,1.01,12.06-1.31,23.56-6.98,34.51-5.67,10.94-14.47,20.46-26.41,28.56-11.94,8.1-24.16,12.84-36.68,14.23-12.52,1.39-24.41-.47-35.69-5.56-11.28-5.1-20.97-13.3-29.06-24.59Zm19.24-13.05c7.78,10.86,17.67,17.02,29.66,18.49,11.99,1.47,24.4-2.15,37.23-10.85,12.83-8.7,20.61-18.78,23.34-30.23,2.73-11.45.21-22.61-7.57-33.47-7.78-10.86-17.69-17.05-29.72-18.57-12.03-1.52-24.46,2.07-37.29,10.77-12.83,8.7-20.59,18.8-23.29,30.31-2.69,11.51-.15,22.69,7.63,33.55Z"/>
          <path class="cls-2" d="m192.41,944l77.81-116.56,21.87,13.88,1.41,117.76,54.8-82.09,21.87,13.88-77.81,116.56-21.87-13.88-1.52-117.6-54.69,81.93-21.87-13.88Z"/>
          <path class="cls-2" d="m415.06,1049.89c-10.19-2.34-18.77-6.11-25.74-11.32-6.98-5.2-11.95-11.51-14.89-18.93-2.95-7.41-3.38-15.71-1.29-24.89l26.79,6.15c-1.27,6.38-.21,12.23,3.18,17.57,3.38,5.34,8.97,8.89,16.78,10.69,6.75,1.55,12.49,1.2,17.22-1.05,4.74-2.24,7.74-6.01,9.03-11.3,1.35-5.54.64-10.26-2.12-14.16-2.75-3.9-6.81-7.48-12.16-10.75-5.35-3.27-11.07-6.75-17.15-10.47-9.84-6.07-16.89-12.58-21.13-19.54-4.25-6.96-5.23-15.14-2.94-24.55,1.8-8.02,5.42-14.43,10.85-19.24,5.43-4.81,12.03-7.99,19.81-9.53,7.77-1.55,16.23-1.28,25.36.82,9.26,2.13,17.04,5.62,23.34,10.46,6.3,4.85,10.76,10.63,13.39,17.36,2.62,6.73,3.1,14.11,1.43,22.16l-27.19-6.24c1.03-4.79.16-9.45-2.58-13.96-2.75-4.51-7.36-7.51-13.84-8.99-5.53-1.4-10.51-1.15-14.95.75-4.45,1.91-7.31,5.5-8.59,10.78-1.09,4.51-.51,8.42,1.76,11.73,2.27,3.31,5.7,6.45,10.29,9.4,4.59,2.96,9.87,6.21,15.86,9.76,6.32,3.9,11.94,8.05,16.88,12.44,4.94,4.4,8.51,9.54,10.72,15.42,2.2,5.88,2.34,12.82.4,20.8-1.72,7.09-5.17,13.23-10.34,18.44-5.18,5.21-11.85,8.81-20.02,10.81-8.17,2.01-17.55,1.79-28.13-.64Z"/>
          <path class="cls-2" d="m595.22,1060.99c-10.41,1.04-20.02-.02-28.84-3.2-8.81-3.18-16.12-8.6-21.93-16.27-5.81-7.67-9.37-17.76-10.71-30.28l-9.09-85.35,25.96-2.61,9.12,85.55c1.15,10.8,4.67,18.57,10.58,23.3,5.9,4.73,13.59,6.62,23.05,5.67,9.33-.94,16.42-4.31,21.26-10.12,4.85-5.81,6.7-14.12,5.55-24.92l-9.12-85.55,25.96-2.61,9.1,85.35c1.33,12.52-.14,23.11-4.4,31.79-4.27,8.68-10.48,15.46-18.64,20.34-8.16,4.88-17.44,7.84-27.85,8.89Z"/>
          <path class="cls-2" d="m727.43,1030.53l-59.4-126.43,23.73-10.59,50.92,108.37,57.46-25.64,8.49,18.06-81.2,36.23Z"/>
          <path class="cls-2" d="m873.79,949.66l-77.07-91.79-32.17,25.68-13.3-15.83,84.68-67.61,13.3,15.84-32.33,25.81,77.07,91.79-20.18,16.12Z"/>
          <path class="cls-2" d="m972.39,855.44l-119.93-75.37,50.57-76.24,17.65,11.09-36.41,54.89,32.9,20.67,33.08-49.88,17.13,10.77-33.09,49.88,34.61,21.75,36.41-54.89,17.65,11.09-50.57,76.24Z"/>
          <path class="cls-2" d="m1053.87,711.04l-138.15-34.92,13.11-49.42c2.86-10.77,7.09-19.17,12.69-25.21,5.6-6.04,12.06-9.99,19.35-11.83,7.3-1.85,14.83-1.79,22.59.17,8.42,2.13,15.55,6.22,21.38,12.28,5.83,6.06,9.12,14.04,9.86,23.94l65.22-13.27-7.5,28.27-61.1,11.23-5.41,20.39,54.47,13.77-6.53,24.62Zm-66.49-43.07l6.17-23.27c2.18-8.21,1.74-14.74-1.32-19.62-3.06-4.88-7.94-8.17-14.65-9.86-6.58-1.66-12.34-1.1-17.29,1.68-4.95,2.79-8.55,8.41-10.79,16.87l-6.12,23.08,44.01,11.13Z"/>
        </g>
        <g>
          <path class="cls-2" d="m150.09,417.92l-129.5-58.45,10.97-23.07,53.83,24.3,26.91-56.59-53.83-24.29,10.97-23.07,129.5,58.45-10.97,23.07-56.43-25.46-26.91,56.59,56.43,25.46-10.97,23.07Z"/>
          <path class="cls-2" d="m151.51,144.36c-4.47,4.26-9.76,6.52-15.86,6.78-6.11.26-11.63-2.07-16.57-6.99-4.94-4.92-7.21-10.35-6.81-16.3.41-5.94,2.85-11.04,7.32-15.3,4.66-4.45,10.05-6.8,16.16-7.06,6.11-.26,11.63,2.07,16.57,6.99,4.94,4.93,7.21,10.36,6.8,16.3-.41,5.94-2.94,11.13-7.61,15.58Zm-8.26-8.24c2.23-2.13,3.37-4.6,3.4-7.41.03-2.81-1.09-5.35-3.37-7.62-2.37-2.37-4.98-3.54-7.82-3.53-2.84.02-5.37,1.09-7.61,3.22-2.04,1.94-3.1,4.3-3.18,7.06-.08,2.76,1.07,5.33,3.44,7.69,2.28,2.27,4.87,3.43,7.75,3.46,2.88.03,5.35-.92,7.39-2.87Zm67.49,160.45l-62.45-134.97,21-20,137.1,63.87-19.82,18.89-31.26-15.23-39.8,37.91,14.78,30.92-19.53,18.6Zm-4.39-68.59l29.6-28.19-56.35-27.17,26.75,55.36Z"/>
          <path class="cls-2" d="m328.43,195.21l-61.24-125.59,23.57-10.91,52.5,107.65,57.09-26.42,8.75,17.94-80.66,37.33Z"/>
          <path class="cls-2" d="m438.86,149.84l-20.63-137.58,25.82-3.68,17.69,117.93,62.54-8.9,2.95,19.65-88.37,12.58Z"/>
          <path class="cls-2" d="m557.17,137.07L581.1,0l56.48,9.36c14.6,2.42,25.19,7.57,31.74,15.44,6.55,7.87,8.93,16.96,7.13,27.27-1.5,8.62-5.09,15.11-10.74,19.48-5.66,4.37-12.06,6.9-19.22,7.6,7.77,2.9,13.72,7.88,17.86,14.95,4.14,7.07,5.49,14.71,4.06,22.94-1.89,10.84-7.48,19.11-16.74,24.83-9.27,5.72-21.28,7.35-36.02,4.91l-58.49-9.69Zm29.29-16.1l28.74,4.76c7.64,1.27,13.87.52,18.7-2.24,4.83-2.76,7.78-7.27,8.88-13.54,1.12-6.39-.22-11.79-4-16.17-3.79-4.39-9.43-7.21-16.93-8.45l-28.34-4.7-7.04,40.34Zm10.33-59.14l26.93,4.46c7.24,1.2,13.08.49,17.54-2.13,4.45-2.62,7.21-6.93,8.26-12.94,1-5.74-.12-10.6-3.35-14.56-3.24-3.96-8.67-6.58-16.31-7.84l-26.53-4.4-6.53,37.4Z"/>
          <path class="cls-2" d="m678.52,158.17l115.69-96,25.56,14.08-24.82,146.06-24.14-13.3,6.32-33.48-48.45-26.69-26.38,22.44-23.78-13.1Zm66.4-23.2l36.03,19.85,11.1-60.29-47.13,40.44Z"/>
          <path class="cls-2" d="m811.06,239.07l108.01-90.89,34.25,38.63c7.46,8.42,12.15,16.59,14.06,24.52,1.91,7.93,1.57,15.35-1.02,22.25-2.59,6.91-6.92,12.91-12.99,18.02-6.59,5.54-14.09,8.93-22.52,10.16-8.43,1.23-17.03-.68-25.81-5.71l-25.89,59.84-19.59-22.1,25.26-55.37-14.13-15.93-42.59,35.84-17.06-19.24Zm74.15-28.8l16.13,18.19c5.69,6.41,11.46,9.78,17.31,10.11,5.86.32,11.4-1.72,16.65-6.14,5.14-4.32,7.95-9.27,8.41-14.82.47-5.55-2.23-11.64-8.1-18.25l-15.99-18.04-34.41,28.95Z"/>
          <path class="cls-2" d="m890.55,330.34l151.95-2.12,10.48,26.72-114.7,97.12-9.9-25.24,26.78-21.87-19.87-50.65-35,.91-9.75-24.86Zm66.35,23.36l14.77,37.67,48-39.55-62.78,1.89Z"/>
        </g>
      </g>
      <ellipse class="cls-1" cx="59.65" cy="507.87" rx="21.48" ry="20.93"/>
      <ellipse class="cls-1" cx="1018.34" cy="507.87" rx="21.48" ry="20.93"/>
    </g>
  </g>
</svg>