<svg xmlns="http://www.w3.org/2000/svg" xmlns:xlink="http://www.w3.org/1999/xlink" viewBox="0 0 567 1008" width="567" height="1008" preserveAspectRatio="xMidYMid meet" style="width: 100%; height: 100%; transform: translate3d(0px, 0px, 0px); content-visibility: visible;"><defs><clipPath id="__lottie_element_2"><rect width="567" height="1008" x="0" y="0"></rect></clipPath><linearGradient id="__lottie_element_6" spreadMethod="pad" gradientUnits="userSpaceOnUse" x1="174.6472625732422" y1="-15.222193717956543" x2="-58.276100158691406" y2="-22.295244216918945"><stop offset="0%" stop-color="rgb(48,37,21)"></stop><stop offset="45%" stop-color="rgb(39,28,31)"></stop><stop offset="90%" stop-color="rgb(30,19,42)"></stop><stop offset="95%" stop-color="rgb(15,9,21)"></stop><stop offset="100%" stop-color="rgb(0,0,0)"></stop><stop offset="100%" stop-color="rgb(0,0,0)"></stop><stop offset="100%" stop-color="rgb(0,0,0)"></stop></linearGradient><mask id="__lottie_element_8"><path fill="url(#__lottie_element_7)" d=" M-126,31.5 C-126,31.5 126,31.5 126,31.5 C126,31.5 126,-31.5 126,-31.5 C126,-31.5 -126,-31.5 -126,-31.5 C-126,-31.5 -126,31.5 -126,31.5z"></path></mask><linearGradient id="__lottie_element_7" spreadMethod="pad" gradientUnits="userSpaceOnUse" x1="174.6472625732422" y1="-15.222193717956543" x2="-58.276100158691406" y2="-22.295244216918945"><stop stop-color="rgb(255,255,255)" offset="0%" stop-opacity="0.7617719769477844"></stop><stop stop-color="rgb(255,255,255)" offset="50%" stop-opacity="0.8808860182762146"></stop><stop stop-color="rgb(255,255,255)" offset="100%" stop-opacity="1"></stop></linearGradient><linearGradient id="__lottie_element_9" spreadMethod="pad" gradientUnits="userSpaceOnUse" x1="197.98785400390625" y1="-341.82861328125" x2="31.21014976501465" y2="-21.887725830078125"><stop offset="0%" stop-color="rgb(71,54,31)"></stop><stop offset="43%" stop-color="rgb(57,41,46)"></stop><stop offset="86%" stop-color="rgb(44,27,61)"></stop><stop offset="93%" stop-color="rgb(22,14,31)"></stop><stop offset="100%" stop-color="rgb(0,0,0)"></stop><stop offset="100%" stop-color="rgb(0,0,0)"></stop><stop offset="100%" stop-color="rgb(0,0,0)"></stop></linearGradient><mask id="__lottie_element_11"><path fill="url(#__lottie_element_10)" d=" M31.5,-440.95001220703125 C31.5,-440.95001220703125 -94.5,440.95001220703125 -94.5,440.95001220703125 C-94.5,440.95001220703125 -31.5,440.95001220703125 -31.5,440.95001220703125 C-31.5,440.95001220703125 94.5,-440.95001220703125 94.5,-440.95001220703125 C94.5,-440.95001220703125 31.5,-440.95001220703125 31.5,-440.95001220703125z"></path></mask><linearGradient id="__lottie_element_10" spreadMethod="pad" gradientUnits="userSpaceOnUse" x1="197.98785400390625" y1="-341.82861328125" x2="31.21014976501465" y2="-21.887725830078125"><stop stop-color="rgb(255,255,255)" offset="0%" stop-opacity="0.6488060355186462"></stop><stop stop-color="rgb(255,255,255)" offset="50%" stop-opacity="0.8244029879570007"></stop><stop stop-color="rgb(255,255,255)" offset="100%" stop-opacity="1"></stop></linearGradient><linearGradient id="__lottie_element_12" spreadMethod="pad" gradientUnits="userSpaceOnUse" x1="66.51712036132812" y1="-1901.1419677734375" x2="221.68115234375" y2="-214.27987670898438"><stop offset="0%" stop-color="rgb(46,35,20)"></stop><stop offset="45%" stop-color="rgb(37,26,30)"></stop><stop offset="91%" stop-color="rgb(28,18,40)"></stop><stop offset="95%" stop-color="rgb(14,9,20)"></stop><stop offset="100%" stop-color="rgb(0,0,0)"></stop><stop offset="100%" stop-color="rgb(0,0,0)"></stop><stop offset="100%" stop-color="rgb(0,0,0)"></stop></linearGradient><mask id="__lottie_element_14"><path fill="url(#__lottie_element_13)" d=" M-47.25,503.95001220703125 C-47.25,503.95001220703125 -15.75,503.95001220703125 -15.75,503.95001220703125 C19.049999237060547,503.95001220703125 47.25,475.75 47.25,440.95001220703125 C47.25,440.95001220703125 47.25,-440.95001220703125 47.25,-440.95001220703125 C47.25,-475.75 19.049999237060547,-503.95001220703125 -15.75,-503.95001220703125 C-15.75,-503.95001220703125 -47.25,-503.95001220703125 -47.25,-503.95001220703125 C-47.25,-503.95001220703125 -47.25,-440.95001220703125 -47.25,-440.95001220703125 C-47.25,-440.95001220703125 -26.25,-440.95001220703125 -26.25,-440.95001220703125 C-20.450000762939453,-440.95001220703125 -15.75,-436.25 -15.75,-430.45001220703125 C-15.75,-430.45001220703125 -15.75,430.45001220703125 -15.75,430.45001220703125 C-15.75,436.25 -20.450000762939453,440.95001220703125 -26.25,440.95001220703125 C-26.25,440.95001220703125 -47.25,440.95001220703125 -47.25,440.95001220703125 C-47.25,440.95001220703125 -47.25,503.95001220703125 -47.25,503.95001220703125z"></path></mask><linearGradient id="__lottie_element_13" spreadMethod="pad" gradientUnits="userSpaceOnUse" x1="66.51712036132812" y1="-1901.1419677734375" x2="221.68115234375" y2="-214.27987670898438"><stop stop-color="rgb(255,255,255)" offset="0%" stop-opacity="0.77365642786026"></stop><stop stop-color="rgb(255,255,255)" offset="50%" stop-opacity="0.8868282437324524"></stop><stop stop-color="rgb(255,255,255)" offset="100%" stop-opacity="1"></stop></linearGradient><linearGradient id="__lottie_element_15" spreadMethod="pad" gradientUnits="userSpaceOnUse" x1="64.60755157470703" y1="419.41888427734375" x2="16.75711441040039" y2="59.88120651245117"><stop offset="0%" stop-color="rgb(129,129,129)"></stop><stop offset="25%" stop-color="rgb(129,93,106)"></stop><stop offset="50%" stop-color="rgb(129,58,83)"></stop><stop offset="69%" stop-color="rgb(64,29,42)"></stop><stop offset="88%" stop-color="rgb(0,0,0)"></stop></linearGradient><mask id="__lottie_element_17"><path fill="url(#__lottie_element_16)" d=" M15.75,-503.95001220703125 C15.75,-503.95001220703125 47.25,-503.95001220703125 47.25,-503.95001220703125 C47.25,-503.95001220703125 47.25,-440.95001220703125 47.25,-440.95001220703125 C47.25,-440.95001220703125 26.25,-440.95001220703125 26.25,-440.95001220703125 C20.450000762939453,-440.95001220703125 15.75,-436.25 15.75,-430.45001220703125 C15.75,-430.45001220703125 15.75,430.45001220703125 15.75,430.45001220703125 C15.75,436.25 20.450000762939453,440.95001220703125 26.25,440.95001220703125 C26.25,440.95001220703125 47.25,440.95001220703125 47.25,440.95001220703125 C47.25,440.95001220703125 47.25,503.95001220703125 47.25,503.95001220703125 C47.25,503.95001220703125 15.75,503.95001220703125 15.75,503.95001220703125 C-19.049999237060547,503.95001220703125 -47.25,475.75 -47.25,440.95001220703125 C-47.25,440.95001220703125 -47.25,-440.95001220703125 -47.25,-440.95001220703125 C-47.25,-475.75 -19.049999237060547,-503.95001220703125 15.75,-503.95001220703125z"></path></mask><linearGradient id="__lottie_element_16" spreadMethod="pad" gradientUnits="userSpaceOnUse" x1="64.60755157470703" y1="419.41888427734375" x2="16.75711441040039" y2="59.88120651245117"><stop stop-color="rgb(255,255,255)" offset="0%" stop-opacity="0.4944155216217041"></stop><stop stop-color="rgb(255,255,255)" offset="34%" stop-opacity="0.747207760810852"></stop><stop stop-color="rgb(255,255,255)" offset="68%" stop-opacity="1"></stop></linearGradient></defs><g clip-path="url(#__lottie_element_2)"><g transform="matrix(1,0,0,1,0,0)" opacity="1" style="display: block;"><g opacity="1" transform="matrix(1,0,0,1,126,31.5)"><path fill="url(#__lottie_element_6)" mask="url(#__lottie_element_8)" fill-opacity="1" d="M0 0 M-126,31.5 C-126,31.5 126,31.5 126,31.5 C126,31.5 126,-31.5 126,-31.5 C126,-31.5 -126,-31.5 -126,-31.5 C-126,-31.5 -126,31.5 -126,31.5z"></path></g><g opacity="1" transform="matrix(1,0,0,1,157.5,566.9500122070312)"><path fill="url(#__lottie_element_9)" mask="url(#__lottie_element_11)" fill-opacity="1" d="M0 0 M31.5,-440.95001220703125 C31.5,-440.95001220703125 -94.5,440.95001220703125 -94.5,440.95001220703125 C-94.5,440.95001220703125 -31.5,440.95001220703125 -31.5,440.95001220703125 C-31.5,440.95001220703125 94.5,-440.95001220703125 94.5,-440.95001220703125 C94.5,-440.95001220703125 31.5,-440.95001220703125 31.5,-440.95001220703125z"></path></g><g opacity="1" transform="matrix(1,0,0,1,519.6500244140625,503.95001220703125)"><path fill="url(#__lottie_element_12)" mask="url(#__lottie_element_14)" fill-opacity="1" d="M0 0 M-47.25,503.95001220703125 C-47.25,503.95001220703125 -15.75,503.95001220703125 -15.75,503.95001220703125 C19.049999237060547,503.95001220703125 47.25,475.75 47.25,440.95001220703125 C47.25,440.95001220703125 47.25,-440.95001220703125 47.25,-440.95001220703125 C47.25,-475.75 19.049999237060547,-503.95001220703125 -15.75,-503.95001220703125 C-15.75,-503.95001220703125 -47.25,-503.95001220703125 -47.25,-503.95001220703125 C-47.25,-503.95001220703125 -47.25,-440.95001220703125 -47.25,-440.95001220703125 C-47.25,-440.95001220703125 -26.25,-440.95001220703125 -26.25,-440.95001220703125 C-20.450000762939453,-440.95001220703125 -15.75,-436.25 -15.75,-430.45001220703125 C-15.75,-430.45001220703125 -15.75,430.45001220703125 -15.75,430.45001220703125 C-15.75,436.25 -20.450000762939453,440.95001220703125 -26.25,440.95001220703125 C-26.25,440.95001220703125 -47.25,440.95001220703125 -47.25,440.95001220703125 C-47.25,440.95001220703125 -47.25,503.95001220703125 -47.25,503.95001220703125z"></path></g><g opacity="1" transform="matrix(1,0,0,1,362.25,503.95001220703125)"><path fill="url(#__lottie_element_15)" mask="url(#__lottie_element_17)" fill-opacity="1" d="M0 0 M15.75,-503.95001220703125 C15.75,-503.95001220703125 47.25,-503.95001220703125 47.25,-503.95001220703125 C47.25,-503.95001220703125 47.25,-440.95001220703125 47.25,-440.95001220703125 C47.25,-440.95001220703125 26.25,-440.95001220703125 26.25,-440.95001220703125 C20.450000762939453,-440.95001220703125 15.75,-436.25 15.75,-430.45001220703125 C15.75,-430.45001220703125 15.75,430.45001220703125 15.75,430.45001220703125 C15.75,436.25 20.450000762939453,440.95001220703125 26.25,440.95001220703125 C26.25,440.95001220703125 47.25,440.95001220703125 47.25,440.95001220703125 C47.25,440.95001220703125 47.25,503.95001220703125 47.25,503.95001220703125 C47.25,503.95001220703125 15.75,503.95001220703125 15.75,503.95001220703125 C-19.049999237060547,503.95001220703125 -47.25,475.75 -47.25,440.95001220703125 C-47.25,440.95001220703125 -47.25,-440.95001220703125 -47.25,-440.95001220703125 C-47.25,-475.75 -19.049999237060547,-503.95001220703125 15.75,-503.95001220703125z"></path></g></g></g></svg>