<svg width="238" height="33" viewBox="0 0 238 33" fill="none" xmlns="http://www.w3.org/2000/svg">
<path d="M152.051 8.62782H153.7V5.54695H157.234V4.25897H153.7V2.64126H157.461V1.35327H152.051V8.62782Z" fill="black"/>
<path d="M158.328 5.9385C158.328 7.91685 159.76 8.80298 161.522 8.80298C163.284 8.80298 164.716 7.91685 164.716 5.9385V1.35327H163.068V5.9385C163.068 7.03071 162.388 7.515 161.522 7.515C160.657 7.515 159.977 7.03071 159.977 5.9385V1.35327H158.328V5.9385Z" fill="black"/>
<path d="M167.707 8.62782H169.356V2.64126H171.602V1.35327H165.461V2.64126H167.707V8.62782Z" fill="black"/>
<path d="M172.345 5.9385C172.345 7.91685 173.777 8.80298 175.539 8.80298C177.301 8.80298 178.733 7.91685 178.733 5.9385V1.35327H177.085V5.9385C177.085 7.03071 176.405 7.515 175.539 7.515C174.674 7.515 173.994 7.03071 173.994 5.9385V1.35327H172.345V5.9385Z" fill="black"/>
<path d="M180.055 8.62782H181.652V5.6809H183.599C184.156 5.6809 184.403 6.11367 184.403 6.67008V7.67986C184.403 7.92715 184.424 8.35992 184.681 8.62782H186.433C186.082 8.25688 186.01 7.86533 186.01 7.48409V6.35066C186.01 5.48513 185.557 5.1451 184.877 4.95963C185.268 4.88751 186.01 4.46505 186.01 3.25949C186.01 1.93029 184.805 1.35327 183.527 1.35327H180.055V8.62782ZM181.652 4.39292V2.64126H183.383C183.98 2.64126 184.413 2.89885 184.413 3.46557C184.413 4.12502 183.97 4.39292 183.373 4.39292H181.652Z" fill="black"/>
<path d="M187.3 8.62782H192.771V7.33983H188.948V5.54695H192.555V4.25897H188.948V2.64126H192.699V1.35327H187.3V8.62782Z" fill="black"/>
<path d="M152.051 20.3977H153.545V14.7615L155.307 20.3977H157.141L158.903 14.7615V20.3977H160.397V13.1232H158.007L156.224 18.8006L154.442 13.1232H152.051V20.3977Z" fill="black"/>
<path d="M161.06 20.3977H162.76L163.481 18.44H166.356L167.087 20.3977H168.788L165.851 13.1232H163.996L161.06 20.3977ZM163.945 17.2035L164.924 14.576L165.902 17.2035H163.945Z" fill="black"/>
<path d="M169.449 20.3977H170.891V14.7409L174.075 20.3977H176.26V13.1232H174.817V18.8109L171.623 13.1232H169.449V20.3977Z" fill="black"/>
<path d="M177.66 20.3977H179.308V13.1232H177.66V20.3977Z" fill="black"/>
<path d="M180.709 20.3977H182.357V17.3168H185.892V16.0289H182.357V14.4112H186.118V13.1232H180.709V20.3977Z" fill="black"/>
<path d="M187.068 20.3977H192.54V19.1097H188.717V17.3168H192.323V16.0289H188.717V14.4112H192.467V13.1232H187.068V20.3977Z" fill="black"/>
<path d="M193.155 18.0999C193.557 19.8516 194.794 20.5729 196.453 20.5729C198.513 20.5729 199.647 19.5013 199.647 18.1618C199.647 16.6574 198.122 16.2865 197.39 16.1319L195.948 15.8228C195.577 15.7404 195.031 15.6167 195.031 15.0912C195.031 14.5245 195.618 14.236 196.411 14.236C197.215 14.236 197.771 14.6687 197.875 15.4828L199.451 15.1324C199.255 14.1123 198.565 12.948 196.411 12.948C194.876 12.948 193.413 13.7105 193.413 15.0912C193.413 16.7192 194.608 16.9768 195.762 17.2138L196.906 17.4508C197.576 17.5951 197.978 17.7805 197.978 18.3163C197.978 18.8006 197.401 19.2849 196.504 19.2849C195.484 19.2849 194.794 18.78 194.794 17.7393L193.155 18.0999Z" fill="black"/>
<path d="M202.181 20.3977H203.829V14.4112H206.076V13.1232H199.934V14.4112H202.181V20.3977Z" fill="black"/>
<path d="M205.334 20.3977H207.034L207.756 18.44H210.63L211.362 20.3977H213.062L210.125 13.1232H208.271L205.334 20.3977ZM208.219 17.2035L209.198 14.576L210.177 17.2035H208.219Z" fill="black"/>
<path d="M214.568 20.3977H216.216V14.4112H218.462V13.1232H212.321V14.4112H214.568V20.3977Z" fill="black"/>
<path d="M219.288 20.3977H220.937V13.1232H219.288V20.3977Z" fill="black"/>
<path d="M225.83 19.2849C224.315 19.2849 223.656 18.0381 223.656 16.781C223.656 15.524 224.315 14.236 225.83 14.236C227.314 14.236 227.973 15.524 227.973 16.781C227.973 18.0381 227.314 19.2849 225.83 19.2849ZM225.83 20.5729C228.457 20.5729 229.622 18.6873 229.622 16.781C229.622 14.8851 228.457 12.948 225.83 12.948C223.171 12.948 222.007 14.8851 222.007 16.781C222.007 18.6873 223.171 20.5729 225.83 20.5729Z" fill="black"/>
<path d="M230.689 20.3977H232.131V14.7409L235.315 20.3977H237.499V13.1232H236.057V18.8109L232.863 13.1232H230.689V20.3977Z" fill="black"/>
<path d="M152.051 32.1679H157.316V30.8799H153.7V24.8933H152.051V32.1679Z" fill="black"/>
<path d="M157.89 32.1679H159.59L160.311 30.2101H163.186L163.918 32.1679H165.618L162.681 24.8933H160.827L157.89 32.1679ZM160.775 28.9737L161.754 26.3462L162.733 28.9737H160.775Z" fill="black"/>
<path d="M166.279 32.1679H169.494C171.287 32.1679 172.616 31.5496 172.616 29.9731C172.616 29.2209 172.049 28.3966 171.04 28.3451C171.627 28.2627 172.317 27.6548 172.317 26.882C172.317 25.831 171.575 24.8933 169.937 24.8933H166.279V32.1679ZM167.928 30.8799V29.0664H169.844C170.411 29.0664 170.968 29.2519 170.968 29.9422C170.968 30.6738 170.329 30.8799 169.618 30.8799H167.928ZM167.928 27.7784V26.1813H169.71C170.298 26.1813 170.658 26.4492 170.658 26.9747C170.658 27.459 170.257 27.7784 169.587 27.7784H167.928Z" fill="black"/>
<path d="M0 22.4346C1.69664 29.8546 6.91706 32.9098 13.9211 32.9098C22.6218 32.9098 27.4072 28.3706 27.4072 22.6965C27.4072 16.3241 20.9687 14.7528 17.8799 14.0981L11.7894 12.7887C10.2233 12.4396 7.91764 11.9158 7.91764 9.68983C7.91764 7.28926 10.3973 6.06716 13.7471 6.06716C17.1404 6.06716 19.4896 7.90032 19.9246 11.3484L26.5806 9.86442C25.7541 5.5434 22.8393 0.611328 13.7471 0.611328C7.26508 0.611328 1.08759 3.84118 1.08759 9.68983C1.08759 16.586 6.13399 17.6772 11.0064 18.681L15.8353 19.6849C18.663 20.296 20.3596 21.0816 20.3596 23.3512C20.3596 25.4026 17.9234 27.454 14.1386 27.454C9.83179 27.454 6.91706 25.3153 6.91706 20.907L0 22.4346Z" fill="black"/>
<path d="M26.6663 32.1678H33.8443L36.8896 23.8749H49.0271L52.1158 32.1678H59.2939L46.8954 1.35327H39.0648L26.6663 32.1678ZM38.8472 18.6373L42.9801 7.50745L47.1129 18.6373H38.8472Z" fill="black"/>
<path d="M112.644 32.1678H119.387V18.2009L132.003 1.35327H124.128L116.037 13.1379L107.902 1.35327H99.8535L112.644 18.2009V32.1678Z" fill="black"/>
<path d="M61.165 32.1678H83.3953V26.712H68.1256V1.35327H61.165V32.1678Z" fill="black"/>
<path d="M85.7346 32.1678H107.965V26.712H92.6952V1.35327H85.7346V32.1678Z" fill="black"/>
<path fill-rule="evenodd" clip-rule="evenodd" d="M144.29 32.1678V1.35327H146.015V32.1678H144.29Z" fill="black"/>
</svg>
