<svg width="177" height="50" viewBox="0 0 177 50" xmlns="http://www.w3.org/2000/svg" class="main-logo"><g fill-rule="evenodd"><path d="M36.707 39.497l2.76-12.363-2.843-14.705H25.76l-4.63 2.702h10.874M4.947 12.43L.32 15.136h10.74l4.835 24.16 2.687-12.393-2.9-14.475m31.088.002l-4.63 2.707h10.54L42.36 49.632l.04.065 4.565-2.715L57.303 12.43m-36.29 37.217l4.613-2.666 2.538-11.31-1.998-9.012m40.922-7.874c.896-.89 2.366-2.4 4.626-3.44V.174H61.51L56.884 2.89H67.09v15.89zm21.925-4.834c-2.055-1.718-4.84-2.45-7.356-2.45-4.238 0-6.97 1.846-8.673 3.36 1.172-.387 2.497-.653 4.046-.653 2.52 0 5.303.732 7.36 2.457 3.044 2.58 3.576 5.82 3.576 10.33V49.7l4.622-2.717v-22.7c0-4.51-.528-7.75-3.575-10.337M72.59 22.882c-1.787 0-3.312.86-4.175 1.99-1.327 1.78-1.327 4.633-1.327 7.606v17.22l4.626-2.716V29.77c0-2.62.055-5.1.96-6.888h-.085zM100.346.174L95.72 2.89h10.07v7.88l4.628-2.708V.174m-10.072 12.19l-4.627 2.71h10.07v34.624l4.623-2.716V12.365m7.92.79h-.417l-4.62 2.708h5.037M133.033 35V22.156h-4.623v15.552c-.068 2.12-.068 3.908 2.65 3.908l3.644-.13v7.945l4.63-2.702v-7.95l-3.652.135c-2.713 0-2.713-1.79-2.647-3.91m.063-21.78V2.43h-10.135l-4.625 2.71h10.138v10.788h6.693v6.228l4.62-2.716v-6.22m14.46.79c2.05 0 8.02.194 12.456 4.97 4.504 4.83 4.77 11.58 4.906 15.49l4.62-2.71c-.128-3.907-.395-10.66-4.903-15.487-4.438-4.777-10.404-4.97-12.46-4.97-5.167 0-8.964 1.544-11.69 3.908 2.01-.75 4.34-1.2 7.07-1.2m.53 29.068c3.367 0 5.385-1.336 6.746-2.93-.648.13-1.34.222-2.127.222-4.323 0-6.74-2.673-7.55-5.898h-4.96c-.064 4.3 2.386 8.604 7.89 8.604"></path> <path d="M149.018 23.542c-1.394 1.523-1.724 3.11-2.055 4.57h14.112c-.106-.813-.262-1.76-.61-2.71h-8.878c.292-1.27.623-2.65 1.625-3.993-1.923.26-3.344 1.222-4.194 2.13m19.516 10.93h-.71l-4.292 2.51 7.683 3.907c-1.22 1.96-2.86 4.17-5.09 5.96-.426.34-.475.37-.98.736.354-.09 1.145-.387 1.825-.737 1.69-.87 3.087-1.79 5.214-3.934 1.952-1.968 3.444-4.393 3.66-4.734l-7.31-3.715z"></path></g></svg>