<svg width="215" height="32" viewBox="0 0 215 32" fill="none" xmlns="http://www.w3.org/2000/svg">
<path d="M15.6007 2.60547C15.4205 2.60547 15.2044 2.67787 15.1683 2.67787C8.755 4.92221 7.56601 11.5828 7.56601 11.619C7.49395 12.705 8.14249 13.61 9.07927 13.7548C9.18736 13.7548 9.29545 13.791 9.40354 13.791C10.3763 13.791 11.0609 13.0308 11.205 12.524C11.205 12.4878 11.2411 12.4154 11.2411 12.343C11.8896 9.3747 13.0786 7.63714 15.2764 6.29778C15.2764 6.29778 15.997 5.93579 16.6095 5.429C17.2581 4.88601 17.2581 4.27063 17.186 3.98103C16.9698 2.82266 16.0691 2.60547 15.6007 2.60547Z" fill="#EB5200"></path>
<path d="M18.7356 6.58789C16.2496 6.73269 13.6914 9.80961 13.187 12.4159C13.0789 12.9227 13.187 13.4295 13.5113 13.8639C13.7995 14.2621 14.2319 14.5517 14.6642 14.5879C15.3488 14.6965 16.2496 14.4069 16.6099 12.9589C16.79 12.1988 17.2584 10.8232 18.6275 9.95441C18.7717 9.84581 19.3842 9.44762 19.5643 9.30282C19.7805 9.12183 20.321 8.86843 20.2849 8.07205C20.2489 6.62409 18.9158 6.58789 18.7356 6.58789Z" fill="#EB5200"></path>
<path d="M186.131 2.09961C184.617 2.09961 183.392 3.33038 183.392 4.85074C183.392 6.3711 184.617 7.63807 186.131 7.63807C187.644 7.63807 188.869 6.3711 188.869 4.85074C188.869 3.33038 187.644 2.09961 186.131 2.09961ZM78.6531 24.9774C76.4553 24.9774 75.8788 24.1087 75.8788 20.8145V14.2263H78.509C79.6619 14.2263 80.5987 13.3213 80.5987 12.1992C80.5987 11.077 79.6619 10.172 78.509 10.172H75.8788V7.42088C75.8788 6.11771 74.8339 5.06793 73.4648 5.06793C72.1677 5.06793 71.1228 6.11771 71.1228 7.42088V10.1358H70.7265C69.5375 10.1358 68.7088 11.0046 68.7088 12.163C68.7088 13.3213 69.5736 14.1901 70.7265 14.1901H71.1228V20.8507C71.1228 26.5702 73.3567 29.2851 78.1487 29.2851H79.3377C80.5627 29.2851 81.4995 28.3078 81.4995 27.077C81.4995 25.8824 80.5267 24.905 79.3377 24.905H78.6531V24.9774ZM21.7257 24.7602C21.2213 24.5068 20.6809 24.1449 19.9603 24.1449C18.9875 24.1449 18.0146 25.0498 18.0146 26.2444C18.0146 27.077 18.447 27.7648 19.2757 28.2354C20.4647 28.8869 21.9419 29.5747 24.6081 29.5747C29.1839 29.5747 32.1744 27.258 32.1744 23.4209C32.1744 18.2806 27.2744 17.81 25.9412 17.5928C23.9596 17.2308 22.6625 16.9774 22.6625 15.6743C22.6625 14.6607 23.5993 14.0091 25.1486 14.0091C27.1663 14.0091 28.3553 15.0951 29.5082 15.0951C30.445 15.0951 31.3457 14.1177 31.3457 12.9955C31.3457 10.4978 26.6979 9.88241 25.0045 9.88241C20.897 9.88241 18.1948 12.344 18.1948 15.8553C18.1948 23.4571 27.6707 20.2716 27.6707 23.5657C27.6707 25.1946 26.0854 25.5928 24.7162 25.5928C23.3831 25.629 22.5184 25.1584 21.7257 24.7602ZM49.4328 12.2716C49.4328 10.9684 48.3879 9.91861 47.0908 9.91861C45.7577 9.91861 44.6768 10.9684 44.6768 12.2716V23.3485C44.0283 24.4345 42.8753 25.0136 41.3981 25.0136C39.2363 25.0136 38.84 23.8553 38.84 22.0815V12.2716C38.84 10.9684 37.7951 9.91861 36.498 9.91861C35.1649 9.91861 34.084 10.9684 34.084 12.2716V22.5521C34.084 27.1132 36.2818 29.5385 40.4253 29.5385C42.2989 29.5385 43.8842 28.9955 45.1452 27.8372C45.3974 28.8507 46.1541 29.6109 47.235 29.6109C48.496 29.6109 49.4688 28.5973 49.4688 27.3666V12.2716H49.4328ZM65.286 29.5747C66.6191 29.5747 67.7 28.5249 67.7 27.1494V17.0136C67.7 12.3078 65.5382 9.91861 61.3587 9.91861C59.5572 9.91861 58.044 10.4616 56.7108 11.5476C56.4226 10.3168 55.5219 9.91861 54.6932 9.91861C53.3961 9.91861 52.3512 10.9684 52.3512 12.2354V27.1494C52.3512 28.4887 53.3961 29.5747 54.6932 29.5747C56.0263 29.5747 57.1072 28.5249 57.1072 27.1494V16.0725C57.7917 15.0227 58.9807 14.4435 60.3499 14.4435C62.6558 14.4435 62.944 15.8553 62.944 17.3756V27.1494C62.908 28.5249 63.9529 29.5747 65.286 29.5747ZM92.3805 22.8779C92.3805 24.7964 91.3357 25.8462 89.4621 25.8462C87.5525 25.8462 86.6157 25.1946 86.6157 23.8191V23.4933C86.6157 22.1539 87.5885 21.4661 89.5342 21.4661H92.3805V22.8779ZM95.0467 29.5747C96.2718 29.5747 97.1365 28.7059 97.1365 27.5476V17.7376C97.1365 12.2716 95.0107 9.88241 89.8224 9.88241C87.9128 9.88241 83.1569 10.3892 83.1569 13.2851C83.1569 14.4435 84.2017 14.9865 85.2466 14.9865C86.3275 14.9865 87.4805 13.9005 89.5702 13.9005C91.9842 13.9005 92.4166 15.0589 92.4166 16.905V17.7376H89.1739C84.6341 17.7376 81.9318 19.8734 81.9318 23.4571V23.7467C81.9318 27.439 84.4539 29.5747 88.6334 29.5747C90.3989 29.5747 91.8401 29.0317 92.957 28.0544C93.3533 29.1403 93.9659 29.5747 95.0467 29.5747ZM108.522 9.88241C107.441 9.88241 105.856 10.2082 104.451 11.7286C104.09 10.6426 103.406 9.88241 102.361 9.88241C100.992 9.88241 99.9108 10.9322 99.9108 12.1992V27.1494C99.9108 28.4887 100.956 29.5747 102.253 29.5747C103.586 29.5747 104.667 28.5249 104.667 27.1494V16.3621C105.027 15.0589 106.072 14.4435 107.441 14.4435C108.99 14.4435 108.774 14.6969 109.855 14.6969C111.224 14.6969 111.621 13.2851 111.621 12.3802C111.585 11.2942 110.972 9.88241 108.522 9.88241ZM117.097 15.4209C117.926 14.5883 119.007 14.1177 120.052 14.1177C122.033 14.1177 122.862 15.1675 122.862 17.7014V21.9367C122.862 24.3621 121.961 25.4118 119.871 25.4118C118.971 25.4118 117.962 25.0136 117.097 24.3983V15.4209ZM112.341 27.3304C112.341 28.5611 113.35 29.5747 114.575 29.5747C115.332 29.5747 116.088 29.2127 116.521 28.5611C117.71 29.2127 119.079 29.5747 120.448 29.5747C125.132 29.5747 127.654 26.8236 127.654 21.6109V18.3168C127.654 12.4887 125.456 9.91861 120.988 9.91861C119.655 9.91861 118.178 10.3168 117.097 11.077V4.92314C117.097 3.61997 116.016 2.5702 114.755 2.5702C113.422 2.5702 112.341 3.61997 112.341 4.92314V27.3304ZM140.156 17.4842H134.175C134.175 15.0227 135.184 13.8643 137.166 13.8643C139.22 13.8643 140.156 14.9141 140.156 17.4842ZM144.768 17.991C144.768 12.8145 141.886 9.91861 137.13 9.91861C132.41 9.91861 129.455 13.1041 129.455 18.0272V21.4661C129.455 26.6426 132.266 29.5747 137.13 29.5747C139.796 29.5747 144.048 28.8145 144.048 26.4254C144.048 25.4842 143.219 24.4345 142.138 24.4345C141.886 24.4345 141.634 24.5068 141.417 24.6154C140.192 25.1946 139.147 25.5204 137.346 25.5204C135.256 25.5204 134.211 24.2897 134.175 21.8281V21.3213H142.967C144.011 21.3213 144.804 20.5611 144.804 19.4752V17.991H144.768ZM148.948 26.9684C150.137 28.5611 151.902 29.3213 154.46 29.3213H155.649C156.874 29.3213 157.847 28.344 157.847 27.1132C157.847 25.9186 156.874 24.9412 155.649 24.9412H155.001C152.767 24.9412 152.226 24.0725 152.226 20.7783V14.2263H154.82C156.009 14.2263 156.91 13.3213 156.91 12.1992C156.91 11.077 156.009 10.1358 154.857 10.1358H152.262V7.38468C152.262 6.08151 151.181 5.03174 149.848 5.03174C148.551 5.03174 147.506 6.08151 147.506 7.38468V10.1358H147.074C145.885 10.1358 145.056 11.0046 145.056 12.163C145.056 13.3213 145.921 14.1901 147.074 14.1901H147.506V20.8507C147.47 23.5657 147.975 25.5928 148.948 26.9684ZM180.402 25.991C179.753 25.5566 179.465 25.3032 179.465 24.1087V4.88694C179.465 3.58377 178.384 2.534 177.051 2.534C175.718 2.534 174.709 3.58377 174.709 4.88694V24.6516C174.709 27.3304 176.475 29.5747 178.816 29.5747C180.294 29.5747 181.158 28.8145 181.158 27.4752C181.158 26.896 180.906 26.3168 180.402 25.991ZM186.131 9.88241C184.797 9.88241 183.681 10.9322 183.681 12.2354V27.1494C183.681 28.4887 184.761 29.5747 186.131 29.5747C187.428 29.5747 188.545 28.5249 188.545 27.1494V12.2716C188.545 10.9684 187.428 9.88241 186.131 9.88241ZM203.965 9.88241C202.74 9.88241 201.984 10.8236 201.984 12.163C201.984 13.4299 201.804 18.9684 198.777 23.2037L195.246 11.5838C194.922 10.5702 194.093 9.91861 192.94 9.91861C191.607 9.91861 190.598 11.1132 190.598 12.344C190.598 13.8281 193.012 21.1403 195.03 26.3892C195.859 28.5249 196.255 29.6109 197.876 29.6109C198.417 29.6109 198.885 29.4299 199.39 28.9593C205.947 22.3711 206.379 15.1675 206.379 12.7421C206.343 11.1132 205.443 9.88241 203.965 9.88241ZM162.315 24.7602C161.81 24.5068 161.27 24.1449 160.693 24.1449C159.612 24.1449 158.604 25.0498 158.604 26.2444C158.604 27.077 159.036 27.7648 159.865 28.2354C161.054 28.8869 162.531 29.5747 165.197 29.5747C169.773 29.5747 172.763 27.258 172.763 23.4209C172.763 18.0634 167.863 17.9548 166.53 17.5928C164.441 17.0136 163.252 16.905 163.252 15.6743C163.252 14.6607 164.188 14.0091 165.738 14.0091C167.755 14.0091 168.944 15.0951 170.097 15.0951C171.034 15.0951 171.935 14.1177 171.935 12.9955C171.935 12.1268 171.358 11.3304 170.53 11.0046C168.944 10.3892 167.611 9.91861 165.629 9.91861C161.522 9.91861 158.82 12.3802 158.82 15.8915C158.82 23.4933 168.296 20.3078 168.296 23.6019C168.296 25.2308 166.71 25.629 165.341 25.629C163.936 25.629 163.107 25.1584 162.315 24.7602Z" fill="#EB5200"></path>
</svg>