<?xml version="1.0" encoding="UTF-8"?> <svg xmlns="http://www.w3.org/2000/svg" xmlns:xlink="http://www.w3.org/1999/xlink" version="1.1" id="Lager_1" x="0px" y="0px" width="636px" height="121.09px" viewBox="0 0 636 121.09" style="enable-background:new 0 0 636 121.09;" xml:space="preserve"> <style type="text/css"> .st0{fill:#FFFFFF;} </style> <g> <path class="st0" d="M31.98,20.2c-6.51,0-11.8,5.3-11.8,11.8v56.08c0,6.52,5.3,11.8,11.8,11.8h56.08c6.52,0,11.82-5.28,11.82-11.8 V32c0-6.51-5.3-11.8-11.82-11.8H31.98z M91.45,120.07H28.61C12.82,120.07,0,107.23,0,91.46V28.63C0,12.84,12.82,0,28.61,0h62.84 c15.77,0,28.61,12.84,28.61,28.63v62.84C120.05,107.23,107.21,120.07,91.45,120.07"></path> <path class="st0" d="M275.5,64.88c-5.93-5.59-14.13-16.23-14.13-16.23s1.74,13.08,1.74,21.63v49.76h-22.87V0.29h2.45l59.87,56.21 c5.76,5.4,13.96,16.23,13.96,16.23s-1.57-13.44-1.57-21.64V1.34h22.87v119.75h-2.45L275.5,64.88z"></path> <polygon class="st0" points="380.77,1.33 380.77,22.8 414.64,22.8 414.64,120.04 439.08,120.04 439.08,22.8 472.95,22.8 472.95,1.33 "></polygon> <g> <path class="st0" d="M515.89,0.1h1.92l58.48,64.23L633.91,0.1H636v119.94h-23.57V75.53c0-8.04,0.87-20.78,0.87-20.78 s-7.15,10.47-12.74,16.76l-23.57,26.36h-2.26l-23.57-26.36c-5.59-6.28-12.75-16.76-12.75-16.76s0.89,12.74,0.89,20.78v44.51h-23.4 V0.1z"></path> </g> </g> </svg> 